<svg viewBox="0 0 100 100" xmlns="http://www.w3.org/2000/svg">
<defs>
<linearGradient id="linearGradient1657" x1="2.555e-7" x2="100" y1=".06914" y2="100.1" gradientTransform="matrix(.9881 0 0 .9881 .5929 .5929)" gradientUnits="userSpaceOnUse">
<stop stop-color="#2639fd" stop-opacity=".2" offset="0"/>
<stop stop-color="#20c8eb" stop-opacity=".2" offset=".4993"/>
<stop stop-color="#2639fd" stop-opacity=".2" offset="1"/>
</linearGradient>
<linearGradient id="linearGradient7510" x1=".1964" x2="99.93" y1=".32" y2="99.93" gradientUnits="userSpaceOnUse">
<stop stop-color="#030303" offset="0"/>
<stop stop-color="#313131" offset=".4991"/>
<stop offset="1"/>
</linearGradient>
<filter id="filter3066" x="-.5361" y="-1.186" width="2.072" height="3.373" color-interpolation-filters="sRGB">
<feFlood flood-color="rgb(0,149,255)" flood-opacity=".502" result="flood"/>
<feComposite in="flood" in2="SourceGraphic" operator="in" result="composite1"/>
<feGaussianBlur in="composite1" result="blur" stdDeviation="2"/>
<feOffset dx="0" dy="0" result="offset"/>
<feComposite in="SourceGraphic" in2="offset" result="fbSourceGraphic"/>
<feColorMatrix in="fbSourceGraphic" result="fbSourceGraphicAlpha" values="0 0 0 -1 0 0 0 0 -1 0 0 0 0 -1 0 0 0 0 1 0"/>
<feFlood flood-color="rgb(0,149,255)" flood-opacity=".502" in="fbSourceGraphic" result="flood"/>
<feComposite in="flood" in2="fbSourceGraphic" operator="in" result="composite1"/>
<feGaussianBlur in="composite1" result="blur" stdDeviation="2"/>
<feOffset dx="0" dy="0" result="offset"/>
<feComposite in="fbSourceGraphic" in2="offset" result="fbSourceGraphic"/>
<feColorMatrix in="fbSourceGraphic" result="fbSourceGraphicAlpha" values="0 0 0 -1 0 0 0 0 -1 0 0 0 0 -1 0 0 0 0 1 0"/>
<feFlood flood-color="rgb(0,149,255)" flood-opacity=".502" in="fbSourceGraphic" result="flood"/>
<feComposite in="flood" in2="fbSourceGraphic" operator="in" result="composite1"/>
<feGaussianBlur in="composite1" result="blur" stdDeviation="4"/>
<feOffset dx="0" dy="0" result="offset"/>
<feComposite in="fbSourceGraphic" in2="offset" result="fbSourceGraphic"/>
<feColorMatrix in="fbSourceGraphic" result="fbSourceGraphicAlpha" values="0 0 0 -1 0 0 0 0 -1 0 0 0 0 -1 0 0 0 0 1 0"/>
<feFlood flood-color="rgb(0,149,255)" flood-opacity=".502" in="fbSourceGraphic" result="flood"/>
<feComposite in="flood" in2="fbSourceGraphic" operator="in" result="composite1"/>
<feGaussianBlur in="composite1" result="blur" stdDeviation="8"/>
<feOffset dx="0" dy="0" result="offset"/>
<feComposite in="fbSourceGraphic" in2="offset" result="composite2"/>
</filter>
<linearGradient id="linearGradient4428" x1="34.73" x2="64.25" y1="35.5" y2="64.23" gradientUnits="userSpaceOnUse">
<stop stop-color="#fff" offset="0"/>
<stop stop-opacity="0" offset=".2609"/>
<stop stop-opacity="0" offset=".742"/>
<stop stop-color="#fff" offset="1"/>
</linearGradient>
<linearGradient id="linearGradient4567" x1="34.73" x2="64.25" y1="35.5" y2="64.23" gradientTransform="translate(.000409)" gradientUnits="userSpaceOnUse">
<stop stop-color="#fff" offset="0"/>
<stop stop-opacity="0" offset=".2609"/>
<stop stop-opacity="0" offset=".7449"/>
<stop stop-color="#fff" offset="1"/>
</linearGradient>
<linearGradient id="linearGradient4611" x1="34.73" x2="64.25" y1="35.5" y2="64.23" gradientTransform="translate(5.512e-7 -.0004097)" gradientUnits="userSpaceOnUse">
<stop stop-color="#fff" offset="0"/>
<stop stop-opacity="0" offset=".2638"/>
<stop stop-opacity="0" offset=".742"/>
<stop stop-color="#fff" offset="1"/>
</linearGradient>
<linearGradient id="linearGradient4653" x1="34.73" x2="64.25" y1="35.5" y2="64.23" gradientTransform="translate(2.096e-6 -.0004108)" gradientUnits="userSpaceOnUse">
<stop stop-color="#fff" offset="0"/>
<stop stop-opacity="0" offset=".2609"/>
<stop stop-opacity="0" offset=".742"/>
<stop stop-color="#fff" offset="1"/>
</linearGradient>
<linearGradient id="linearGradient4695" x1="34.73" x2="64.25" y1="35.5" y2="64.23" gradientTransform="translate(1.774e-6 -.0004109)" gradientUnits="userSpaceOnUse">
<stop stop-color="#fff" offset="0"/>
<stop stop-opacity="0" offset=".2638"/>
<stop stop-opacity="0" offset=".742"/>
<stop stop-color="#fff" offset="1"/>
</linearGradient>
<linearGradient id="linearGradient4794" x1="34.73" x2="64.25" y1="35.5" y2="64.23" gradientTransform="translate(1.323e-6 -.0004106)" gradientUnits="userSpaceOnUse">
<stop stop-color="#fff" offset="0"/>
<stop stop-opacity="0" offset=".2609"/>
<stop stop-opacity="0" offset=".742"/>
<stop stop-color="#fff" offset="1"/>
</linearGradient>
</defs>
<g>
<circle cx="50" cy="50" r="49.41" fill="url(#linearGradient1657)" stroke="#bfbfbf" stroke-width="1.186" style="paint-order:markers stroke fill"/>
</g>
<g>
<circle cx="50" cy="50" r="35" fill="url(#linearGradient7510)" stroke="#bfbfbf" stroke-width="1.2" style="paint-order:markers stroke fill"/>
</g>
<g fill-opacity="0" stroke-width=".5">
<circle cx="49.8" cy="49.81" r="30" stroke="url(#linearGradient4428)" style="paint-order:normal"/>
<circle cx="49.81" cy="49.81" r="27.5" stroke="url(#linearGradient4567)" style="paint-order:normal"/>
<circle cx="49.8" cy="49.8" r="25" stroke="url(#linearGradient4611)" style="paint-order:normal"/>
<circle cx="49.8" cy="49.8" r="22.5" stroke="url(#linearGradient4653)" style="paint-order:normal"/>
<circle cx="49.8" cy="49.8" r="20" stroke="url(#linearGradient4695)" style="paint-order:normal"/>
<circle cx="49.8" cy="49.8" r="17.5" stroke="url(#linearGradient4794)" style="paint-order:normal"/>
</g>
<g>
<path d="m33.42 52.23q-0.5994-0.02067-1.261-0.06201-0.6408-0.06201-1.53-0.08268-1.943-0.04134-4.217 0.1654-0.5168 1.778-1.716 4.382-1.178 2.584-2.336 4.382-2.48 3.845-5.044 4.754-0.3721 0.1447-0.7648 0.1447-0.3721 0-0.6821-0.1447-0.3101-0.124-0.5168-0.3307-0.4341-0.3927-0.4341-0.8682 0-0.4754 0.3101-0.7028 2.935-2.129 6.036-10.73-0.2274 0.06201-0.4548 0.124-0.2274 0.06201-0.3927 0.124-0.1654 0.06201-0.3927 0.06201-0.2067 0-0.4754-0.124-0.248-0.1447-0.4548-0.3307-0.4548-0.4134-0.4548-0.8062 0-0.3927 0.3514-0.7235 0.3721-0.3514 0.9095-0.6615 0.9922-0.5788 2.501-1.075l1.116-3.473q1.964-6.098 3.762-8.454-1.695-0.1447-2.501-0.1447-2.439 0-3.514 0.6821-1.054 0.6821-1.488 1.488-0.4134 0.7855-0.4341 1.096-0.06201 0.5788-0.3721 0.7441-0.3101 0.1447-0.7648 0.1447-0.4341 0-0.9095-0.3101-0.4754-0.3307-0.7855-0.8268-0.6615-1.013-0.5168-2.274 0.1447-1.282 0.8268-2.191 0.7028-0.9302 1.654-1.509 1.757-1.075 3.7-1.075 1.964 0 3.7 0.2067 1.757 0.186 3.493 0.4341 4.61 0.6201 5.87 0.6201t1.86-0.1447q0.6201-0.1447 1.054-0.4341 0.4341-0.2894 0.5994-0.3721 0.186-0.1034 0.5788-0.1034 0.6201 0 0.5374 0.9508-0.08268 0.9302-0.4548 1.612-0.3721 0.6615-0.9715 1.096-1.22 0.8888-3.101 0.8888t-4.568-0.248q-0.6821 1.385-1.302 3.638l-1.902 6.821q1.943-0.3101 2.956-0.3101 1.034 0 1.695 0.2067 0.6615 0.2067 1.178 0.5788 1.199 0.8062 1.178 1.984t-1.158 1.178zm4.734 4.113q0.08268-2.48 0.7648-5.209 0.7028-2.749 1.902-5.292 1.199-2.542 2.832-4.775 1.654-2.232 3.617-3.886 4.217-3.555 8.847-3.555 5.622 0 7.338 5.106 0.6201 1.798 0.5374 4.444-0.06201 2.625-0.8062 5.354-0.7235 2.729-1.984 5.271-1.24 2.542-2.915 4.775-1.674 2.212-3.638 3.845-4.196 3.555-8.392 3.555-3.762 0-5.974-2.46-2.253-2.522-2.129-7.173zm6.739-7.937q-1.054 2.398-1.716 4.899-0.6408 2.501-0.7028 4.258-0.04134 1.736 0.2067 2.708 0.2687 0.9508 0.7441 1.612 0.9922 1.406 2.542 1.406 1.571 0 3.142-1.013 1.571-1.013 3.039-2.708 1.488-1.695 2.811-3.907 1.344-2.212 2.356-4.61 2.935-6.966 2.15-11.49-0.5374-3.142-3.431-3.142-2.646 0-5.891 3.597-3.059 3.349-5.25 8.392zm23.65 9.322-0.186 1.592q0 2.501 1.674 3.411 0.5788 0.3101 1.385 0.3101 0.8062 0 1.447-0.2687 0.6408-0.2894 1.054-0.7441 0.8682-0.9302 0.8682-2.15t-0.4961-2.212-1.24-1.984l-1.654-2.026q-2.005-2.398-2.687-4.361-0.6821-1.984-0.6821-3.638 0-1.654 0.3927-3.121 0.4134-1.488 1.137-2.811 0.7235-1.344 1.736-2.46t2.253-1.922q2.584-1.736 5.126-1.736 2.542 0 3.969 0.7028 1.426 0.7028 2.294 1.778 1.612 2.026 1.612 4.899 0 2.667-1.509 5.023-1.385 2.15-3.101 2.729-0.3721 0.186-1.034 0.186-0.6408 0-1.096-0.186-0.4341-0.2067-0.7648-0.5374-0.7235-0.7235-0.7235-1.571 0-0.5788 0.3514-0.7648 1.571-0.8475 2.729-2.46 1.261-1.757 1.323-3.493 0.06201-1.757-0.8475-2.584-0.8888-0.8475-2.377-0.8475t-2.687 0.6821q-1.199 0.6615-2.067 1.798-1.86 2.439-1.86 5.767 0 2.212 1.53 4.672 0.6408 1.054 1.385 2.088 0.7648 1.013 1.426 2.088 1.509 2.501 1.509 4.486 0 1.984-0.7235 3.349-0.7028 1.364-1.881 2.377-2.542 2.191-5.788 2.191-3.059 0-4.713-1.819-1.323-1.468-1.323-3.183 0-1.86 1.054-3.142 0.8062-0.9715 1.55-1.158 1.633-0.4341 1.633 1.054z" fill="#e4f8ff" filter="url(#filter3066)" stroke-width="1.2" style="paint-order:markers stroke fill" aria-label="FOS"/>
</g>
</svg>
