<svg viewBox="0 0 2016 2016" xmlns="http://www.w3.org/2000/svg">
<g transform="translate(0 2016) scale(.1 -.1)">
<path d="m9750 20154c-2586-97-5e3 -1145-6805-2959-863-866-1549-1860-2058-2985-447-989-740-2103-841-3200-32-342-40-527-40-930 0-720 57-1296 195-1985 471-2347 1766-4454 3649-5936 1125-885 2460-1534 3845-1869 812-197 1545-284 2385-284 603 0 1059 37 1630 130 1006 165 1942 468 2870 930 1248 622 2328 1473 3227 2545 1256 1498 2054 3351 2283 5304 209 1789-68 3605-805 5265-940 2120-2606 3865-4679 4902-1222 612-2487 957-3856 1053-210 15-810 26-1e3 19zm755-244c2145-97 4166-870 5825-2229 238-195 433-374 706-646 284-283 473-492 691-762 1680-2079 2445-4749 2117-7393-323-2611-1674-4984-3749-6586-2107-1626-4779-2330-7410-1953-765 110-1526 312-2232 592-1060 423-2007 1e3 -2881 1765-215 188-686 659-874 874-1313 1505-2120 3289-2377 5258-56 429-76 748-75 1250 0 430 8 617 45 980 130 1301 519 2565 1146 3720 1368 2518 3770 4314 6578 4919 805 174 1677 247 2490 211z"/>
<path d="m9790 17250c-801-34-1616-205-2341-493-1210-481-2255-1265-3058-2295-55-70-112-134-127-141-34-15-96-26-156-26-25 0-44-3-41-7 2-5-6-8-19-8-44 0-100-12-88-20s-34-29-165-75c-100-36-343-160-455-232-46-31-114-83-150-117-36-35-93-84-127-110-116-90-316-344-406-516-68-129-150-332-171-422-22-94-33-233-18-224s15 6-8-84c-10-41-20-68-21-60-5 29-14-126-10-165l5-40 7 40c4 22 9 65 10 95 1 48 3 44 11-35 5-53 5-111 0-141-7-40-4-71 11-135 10-46 21-95 23-108 5-22 6-22 23-7 28 25 27 26 47-63 1-8 8-17 15-22 8-4 11-28 10-62-1-49 5-67 58-168 78-152 82-159 109-196 12-17 22-42 22-55 0-14 9-33 20-43 36-33 80-108 80-137 0-33-6-34-34-10-12 10-9 4 7-16s27-46 27-63c0-21 7-32 23-40 41-19 49-82 33-249-31-304-39-526-31-870 4-184 8-389 8-455 0-68 3-109 8-95 18 63 3-247-21-420-18-128-19-141-9-135 12 8 12 7-12-70-11-38-19-79-16-93 3-17-4-40-19-64-14-21-22-43-18-49 8-14-5-61-15-55-5 3-14-14-20-39-13-53-14-58-2-51 5 4 12-12 16-34 5-31 2-46-14-69-12-16-21-38-21-48s-9-36-20-57c-12-24-17-49-13-67 4-21-1-34-18-51-13-13-24-28-24-33-1-6-6-28-12-50-7-22-14-51-16-65s-12-43-24-65c-16-31-18-45-10-63 8-17 6-31-8-60-23-47-29-92-12-92 9 0 8-3-1-9-8-4-14-12-14-17s-5-20-10-34c-6-14-12-61-13-105-2-44-9-102-15-128-6-27-8-53-5-58 4-5 10-46 14-92l8-82 2 83c1 91 21 109 21 19 0-93 12-187 23-180 6 4 8 0 4-10-3-9-2-17 2-19s28-41 52-88c24-46 52-93 61-102 10-10 15-18 10-18-4 0 1-5 11-11 9-6 15-14 13-18-5-8 71-106 83-106 15-1 31-17 25-27-4-7-2-8 4-4s18-5 28-19c9-13 20-22 25-20 4 3 13-4 19-15s15-18 21-15c5 4 9 2 9-3s7-9 15-9 15 4 15 9c0 4-7 8-15 8s-15 5-15 10c0 6-6 10-12 10-7 0-35 24-63 52-27 29-38 42-24 30s28-20 31-17 13-6 22-21c10-14 20-24 22-21 3 3 17-6 31-19s29-21 34-18 9 1 9-3c0-5 20-19 45-31s45-27 45-34c0-6 3-8 7-5 3 4 11 3 17-2 41-33 320-81 344-60 12 11 141 17 144 7 2-6 21-5 48 1 25 6 64 11 88 11s52 4 62 10c16 9 28-7 101-123 637-1025 1461-1841 2464-2439 1849-1104 4102-1317 6128-582 1433 520 2676 1497 3524 2769 617 926 1012 1989 1147 3085 14 113 28 236 32 274 6 66 9 71 75 154 38 47 69 90 69 96s38 42 85 80c54 44 88 80 95 100l11 31-40-39c-32-31-39-35-34-17 3 11 9 21 14 21s7 6 5 13c-1 6-1 8 2 4 6-11 74 69 89 105 11 26 34 56 165 215 27 32 55 81 64 108 10 28 40 84 67 125 29 42 60 105 73 145 12 38 49 126 83 195 33 69 61 132 61 140s-15-19-34-60c-44-100-160-317-179-336-4-4-1 12 8 35 8 24 15 51 15 60s14 43 30 76c21 42 29 51 25 30l-6-30 21 34c12 19 29 64 37 100 9 36 28 103 44 148 67 196 88 285 99 433 5 80 13 161 15 180 3 19 6 150 7 290 1 276 4 252-73 580-35 149-100 332-113 320-9-7-30 26-78 123-75 151-139 251-230 364-144 178-313 334-498 458-84 56-361 198-410 209-17 4-14 1 10-11 193-94 255-126 315-163 92-56 275-189 275-200 0-16-25-4-60 29-42 40-152 117-162 113-5-1-8 3-8 9 0 5-4 7-10 4-5-3-10-2-10 4 0 11-60 47-72 43-5-1-8 3-8 10 0 6-3 9-6 5-4-3-13 1-21 9-9 8-22 13-30 10s-11-1-8 4c3 6 0 10-8 10s-54 19-103 41c-169 79-378 146-478 155-28 2-52 8-54 13-2 6-10 7-18 4s-22-2-31 3c-10 4-20 8-23 9-13 4-149 25-180 28-23 3-16 4 20 5 63 2 227-20 326-43 37-8 69-14 71-11 13 12-255 58-418 71l-86 7-83 117c-369 512-832 1008-1305 1396-1153 946-2595 1518-4075 1614-231 15-562 20-770 11zm583-1048 38-7-78-76-224 1c-1505 6-2894-508-4024-1489-161-140-452-433-604-608-129-149-135-154-199-137l-22 6 27 37c131 175 458 523 672 716 1e3 902 2244 1436 3591 1550 164 13 759 19 823 7zm-489-540-51-49-119-7c-777-45-1596-277-2269-643-500-271-902-571-1306-973l-176-175-49 6c-27 3-43 7-36 7 7 1 10 7 7 12-15 24 351 386 590 585 503 420 1128 769 1760 985 528 180 1089 281 1650 298l49 2-50-48zm-554-552c-23-28-52-52-63-55-12-2-92-18-177-35-614-121-1181-346-1710-677-233-146-485-335-667-500l-83-74-57 7-58 7 85 80c503 472 1160 859 1849 1087 220 73 494 142 716 179 227 39 215 41 165-19zm-706-684c-47-53-69-69-118-86-193-70-516-222-723-341-98-57-292-183-418-273-49-34-52-35-114-28l-63 7 108 81c385 288 773 496 1224 655 74 26 141 48 148 48 7 1-13-28-44-63zm7443-332c-3-3-12-4-19-1-8 3-5 6 6 6 11 1 17-2 13-5zm-12597-88c0-5-134-96-185-126-68-40-25-5 80 64 98 66 105 69 105 62zm1797-132c-3-3-12-4-19-1-8 3-5 6 6 6 11 1 17-2 13-5zm1342-120c11-10-35-15-74-9-63 9-46 27 18 19 29-4 54-8 56-10zm10842-231c13-16 12-17-3-4-17 13-22 21-14 21 2 0 10-8 17-17zm-12631-153c201-10 592-51 955-99 605-81 694-92 840-106 33-3 74-8 90-10 100-15 282-26 421-26 295 0 431 30 584 125 111 70 117 72 173 80 111 17 151-27 149-164-2-164-72-351-172-463-99-110-260-203-430-247-125-33-478-39-833-14-144 11-293 19-332 19h-69l-54-125c-30-68-78-196-107-285-50-149-475-1657-475-1684 0-7 7-10 18-7 63 20 354 49 527 53 294 8 425-22 605-137 191-123 286-302 251-472-16-76-46-118-106-148-47-23-58-25-180-22-71 1-182 7-245 12-224 19-789 10-1046-16l-62-6-32-102c-84-265-269-700-456-1076-273-546-527-917-820-1200-256-247-540-396-713-376-110 13-226 89-272 178-23 45-25 137-4 178 8 16 52 60 97 98 273 228 523 606 796 1202 87 190 265 626 336 823l35 97-27-6c-15-4-61-17-102-30-99-31-153-31-219 2-63 32-140 105-165 158-25 52-17 116 21 169 70 100 283 226 568 336l150 57 42 125c23 68 107 324 187 569 273 830 462 1272 690 1613l64 95-32 6c-89 15-410 28-571 23-247-8-415-39-548-100-72-33-205-135-272-210-72-79-159-251-180-357-24-117-53-144-169-161-121-17-227 30-335 148-144 156-199 372-155 603 45 240 174 441 387 604 135 103 372 212 548 252 150 34 326 40 649 24zm6696-1c453-44 791-221 1030-539 128-170 255-466 303-705 38-191 46-292 45-575-1-437-45-746-170-1209-102-378-227-699-418-1081-385-765-871-1369-1471-1825-621-472-1284-659-1898-534-610 124-1037 557-1181 1199-45 205-59 345-60 600 0 304 29 575 95 900 235 1147 857 2277 1635 2971 406 362 809 597 1227 714 293 82 589 111 863 84zm4664-4c227-26 346-58 495-132 337-168 578-449 693-813 83-261 99-600 42-881-88-432-374-891-684-1097-186-123-361-164-551-127-91 17-149 49-227 123-125 119-182 270-148 394 12 43 35 62 185 161 287 188 559 547 648 857 70 240 55 518-35 671-123 208-375 313-680 281-202-20-350-73-520-185-304-199-543-555-647-963-43-169-55-271-55-484 0-176 3-219 22-304 44-197 119-386 233-584 78-136 241-384 345-527 385-527 555-901 571-1255 7-147-14-337-53-482-67-249-259-541-474-719-394-327-825-469-1310-430-315 25-566 130-754 316-154 151-254 325-293 510-22 101-13 351 16 460 60 220 239 461 408 545 109 55 240 66 313 27 90-47 104-119 75-367-34-286-2-480 104-642 113-173 253-253 461-265 137-8 244 13 360 69 153 74 284 231 336 403 14 45 18 91 18 185-2 212-47 354-186 583-98 162-121 194-283 392-270 330-304 373-387 485-273 368-423 720-484 1135-23 155-15 501 15 670 92 516 356 1015 727 1375 335 325 734 540 1129 611 127 22 403 25 575 4zm-13633-647c-3-8-6-5-6 6-1 11 2 17 5 13 3-3 4-12 1-19zm-17-158c-5-56-10-125-11-154-1-50-1-50-10-16-9 38-4 143 13 228 16 84 20 54 8-58zm-6-397c4-25 2-33-9-33-12 0-15 14-14 68 1 69 4 64 23-35zm35-153c1-13 0-13-9 0-5 8-9 26-9 40l1 25 8-25c4-14 8-32 9-40zm-42 8c-3-8-6-5-6 6-1 11 2 17 5 13 3-3 4-12 1-19zm63-76c0-15-2-15-10-2-13 20-13 33 0 25 6-3 10-14 10-23zm19-72c0-9-4-8-9 5-5 11-9 27-9 35 0 9 4 8 9-5 5-11 9-27 9-35zm14932-1933c-10-9-11-8-5 6 3 10 9 15 12 12s0-11-7-18zm-158-157c-6-22-21-35-30-26-5 5 24 46 33 46 1 0 0-9-3-20zm-14474-1062c-7-23-16-47-21-53-5-5-2 13 7 40 8 28 15 54 15 59s3 7 6 4 0-26-7-50zm27-124c-9-13-16-30-16-38s-4-17-9-20c-5-4-6 8-1 27 12 49 21 67 32 61 5-3 3-16-6-30zm-36-147c-12-18-19-23-15-12 3 11 9 33 12 49 5 23 8 25 15 12 7-12 3-26-12-49zm-25-46c2-13-2-18-13-17-19 3-27 29-17 54 6 16 7 16 16-1 6-9 12-26 14-36zm-68-254c-4-18-5-17-6 6 0 16-5 25-11 22-6-4-7 1-3 11 5 15 7 15 15 0 5-9 7-27 5-39zm-130-469c-3-7-5-2-5 12s2 19 5 13c2-7 2-19 0-25zm-74-168c-3-12-8-19-11-16-5 6 5 36 12 36 2 0 2-9-1-20zm-16-202c-3-7-5-2-5 12s2 19 5 13c2-7 2-19 0-25zm86-255c5-7 5-18 1-24-3-6-1-15 6-19 8-5 9-10 2-14-14-8-52 95-51 137 1 30 2 28 18-18 9-27 20-56 24-62zm10445-330c10-4-180-165-323-273-406-305-886-551-1369-701-88-27-164-49-170-49s20 28 56 63c58 56 78 68 160 97 578 203 1079 488 1518 864l65 55 30-27c16-15 31-28 33-29zm1892-137c-18-16-130-59-138-52-3 3 17 15 44 26s58 24 69 29c30 14 41 13 25-3zm-35-53c-100-155-399-505-621-727-1036-1036-2402-1659-3874-1767-192-14-579-17-764-5l-139 8 83 83 288-3c408-5 704 17 1082 79 1131 187 2164 683 3026 1452 246 219 527 519 718 764 66 85 75 93 136 116 84 32 85 32 65 0zm-1391-22 38-17-133-121c-165-149-252-221-394-328-715-536-1577-878-2465-978-23-3-20 2 25 48 48 50 53 52 130 64 1022 161 1904 588 2690 1305 28 25 55 45 60 45 6 0 27-8 49-18zm-9776-18c-10-2-26-2-35 0-10 3-2 5 17 5s27-2 18-5zm10344-171c-749-820-1789-1418-2892-1661-352-78-793-131-1090-131h-105l45 45 45 44 175 11c777 48 1444 219 2116 545 580 280 1074 636 1544 1109l125 126h58 59l-80-88z"/>
<path d="m11151 12809c-133-23-305-96-456-193-268-171-619-523-908-911-610-817-1105-2022-1213-2955-23-199-15-540 16-683 60-284 223-519 425-613 132-62 317-69 508-20 739 189 1661 1380 2182 2816 146 403 229 719 286 1090 31 199 34 636 6 805-62 366-219 578-482 650-72 19-287 28-364 14z"/>
<path d="m3865 14246c-22-7-44-14-50-15-13-4-42-20-35-20 3 0 41 10 85 24 44 13 71 24 60 24s-38-6-60-13z"/>
<path d="m3603 14175c-18-8-33-16-33-19 0-5 71 22 79 30 9 8-15 3-46-11z"/>
<path d="m3475 14111c-63-29-235-136-235-146 0-4 12 2 28 13 15 11 73 43 128 72 89 47 159 90 144 89-3 0-32-12-65-28z"/>
<path d="m16631 14006c8-8 131-47 136-43 2 3-24 14-58 26-60 20-87 26-78 17z"/>
<path d="m18059 12784c15-49 29-82 39-88 5-3 0 19-13 49-25 62-39 83-26 39z"/>
<path d="m18212 11855c-3-314-8-399-38-583-15-90-14-155 1-80 4 21 11 35 16 32s6 1 3 9-1 33 5 54c32 118 55 343 34 330-5-3-7 65-5 151 2 87-1 189-5 227-7 56-9 29-11-140z"/>
<path d="m2530 11780c0-11 11-45 25-76s25-63 25-71 11-36 24-62c13-25 30-59 36-76 11-27 13-28 20-11 8 24-4 94-19 109-8 8-11 7-11-3-1-8-14 10-29 40-16 30-27 59-25 65 5 11-33 105-41 105-3 0-5-9-5-20z"/>
<path d="m2672 11483c22-46 33-63 39-63 5 0-1 16-12 35-12 19-23 35-26 35-2 0-3-3-1-7z"/>
<path d="m2780 11216c0-2 8-10 18-17 15-13 16-12 3 4s-21 21-21 13z"/>
<path d="m17910 10444c-12-19-20-37-18-39 2-3 15 13 27 35 28 50 21 53-9 4z"/>
<path d="m17708 10070c-31-38-64-84-73-102-8-18-10-25-3-14 7 10 36 46 64 80 44 53 81 107 72 106-2-1-29-32-60-70z"/>
<path d="m2891 9114c0-11 3-14 6-6 3 7 2 16-1 19-3 4-6-2-5-13z"/>
<path d="m2871 9048c0-9-4-25-7-35-5-17-5-17 6 0 6 10 9 25 7 35-4 15-5 15-6 0z"/>
<path d="m2840 8805c0-19 4-35 8-35s6 16 4 35-6 35-8 35-4-16-4-35z"/>
<path d="m3026 6553c-6-14-5-15 5-6 7 7 10 15 7 18s-9-2-12-12z"/>
<path d="m3160 6470c30-16 62-29 70-29 16 1-98 58-115 58-5 0 15-13 45-29z"/>
<path d="m3258 6433c6-2 18-2 25 0 6 3 1 5-13 5s-19-2-12-5z"/>
<path d="m3408 6423c7-3 16-2 19 1 4 3-2 6-13 5-11 0-14-3-6-6z"/>
<path d="m3445 6420c-4-6 7-10 27-10 25 0 29 3 18 10-19 13-37 13-45 0z"/>
</g>
</svg>
