<svg viewBox="0 0 700 700" xmlns="http://www.w3.org/2000/svg">
<g transform="translate(0 700) scale(.1 -.1)">
<path d="m3305 6994c-654-43-1239-242-1775-605-182-123-322-240-501-418-192-193-300-324-448-546-310-466-497-990-562-1575-17-148-17-552 0-700 65-585 252-1109 562-1575 148-222 256-353 448-546 300-299 585-501 964-684 964-465 2108-455 3068 26 351 175 625 374 910 658 299 300 501 583 683 961 168 349 274 719 323 1120 23 195 23 602-1 785-80 626-281 1147-630 1639-566 795-1470 1328-2446 1441-134 15-481 26-595 19zm372-84c857-48 1634-392 2233-990 557-556 901-1272 986-2055 21-200 21-534-1-730-83-752-401-1441-914-1980-568-597-1298-960-2116-1050-179-20-516-23-690-5-798 79-1525 420-2085 980-568 567-911 1291-990 2095-15 150-16 504-1 650 73 712 349 1358 812 1900 598 699 1470 1132 2387 1184 198 12 191 11 379 1z"/>
<path d="m3295 5984c-145-17-224-29-305-46-376-78-720-239-1040-486-101-78-322-297-405-400-60-76-84-92-135-92-16 0-32-5-35-11-4-6-13-8-21-5s-14 2-14-2-30-21-67-37c-38-16-79-41-92-55s-21-18-17-10c5 9 2 8-7-2-8-10-16-16-19-13-8 8-153-139-185-188-52-80-92-187-98-262-2-38-7-85-10-104-4-26-3-30 3-16 7 15 10 5 11-37 2-87 2-88 20-78 13 7 16 1 19-32 1-22 7-49 13-59 6-12 6-19 0-19-5 0-7-9-4-20s9-20 14-20 6 8 3 18c-5 16-5 16 6-1 6-9 8-22 4-29-4-6-3-8 4-4 13 8 62-78 62-108 0-12 5-27 11-33 7-7 7-57-1-172-9-121-9-200-1-317 7-86 8-161 4-168-4-6-8-44-8-83 0-40-3-73-7-73-5 0-7-3-6-7 3-16-14-63-22-58-4 3-4-11 0-30s4-37 0-40-11-22-15-42c-4-21-10-42-15-48-4-5-10-21-13-35s-8-36-12-50c-6-25-14-68-17-102-1-10-6-18-11-18-4 0-4-7 1-16s7-37 4-62c-4-40-3-45 13-38 14 5 16 2 12-14-3-12-1-17 5-14 5 3 8 0 6-7-3-17 21-79 32-79 4 0 12-11 18-25s16-25 22-25 8 6 4 13-3 9 2 4 9-13 9-18 4-9 9-8c5 0 12-5 17-13 5-7 13-14 19-14 5-1 15-2 21-3 5 0 7-5 4-11-4-6 1-7 11-3 11 4 15 3 11-4-5-7 1-9 15-5 12 3 19 1 15-5-8-13 96-7 124 7 15 8 19 9 15 1-4-6-1-11 8-11 8 0 16 5 18 11 8 23 39-8 100-99 436-655 1095-1053 1873-1133 146-14 447-7 590 16 328 51 696 186 955 351 538 342 932 873 1089 1466 30 112 64 289 76 402 7 60 31 107 70 136 11 8 24 13 30 12 5-2 7 0 3 4s-2 14 5 22c10 13 9 14-1 8-11-6 77 121 117 170 6 7 7 15 4 18-4 3-2 6 4 6s14 11 17 24 9 32 12 43c5 15 4 15-5 3-9-13-11-13-11 3 0 9 5 17 11 17 5 0 7 5 4 10-3 6-2 10 3 10 4 0 19 36 31 80 13 43 28 81 35 83 13 4 14 263 2 337-4 25-9 52-10 60s-10 39-20 67c-10 29-15 57-11 63s1 9-6 8c-8-2-31 29-53 71-26 50-65 101-119 155-44 45-74 72-67 61s-2-4-20 15-29 28-25 20-3-4-15 10-19 18-15 10c4-10 2-9-8 2-8 10-17 15-20 11-4-3-7-1-7 6s-4 9-10 6c-5-3-10-1-10 5s-4 9-9 6c-14-9-42 5-34 17 3 6 1 7-6 3-13-9-53 2-47 13 3 4-12 8-32 8-20 1-38 5-39 10-2 5-18 8-36 6-25-4-29-2-17 6 11 8 8 10-16 5-19-4-34-1-38 5s-19 11-34 12c-22 0-41 19-107 106-94 125-295 332-415 427-460 368-1010 560-1585 555-88-1-173-4-190-5zm277-360c67-11 29-24-71-24-322 0-651-77-940-221-232-115-413-249-600-445-60-63-114-114-121-114-17 0 22 50 117 150 329 346 749 564 1223 634 155 23 321 31 392 20zm-142-187c-9-8-64-19-135-25-236-23-434-80-650-187-193-95-331-192-510-359-38-36-73-66-77-66-20 0 0 24 90 111 249 241 532 398 872 484 110 28 276 52 365 54 50 1 57-1 45-12zm-190-191c-8-8-60-23-115-35-280-60-536-187-768-378-43-35-83-63-89-61-5 2 19 31 54 63 218 203 567 372 868 418 57 9 65 8 50-7zm-244-235c-9-10-38-27-64-36-79-30-223-105-310-161-74-49-122-69-108-45 11 18 176 122 263 166 72 36 201 89 232 94 2 1-4-7-13-18zm-1021-400c312-43 422-53 530-49 102 3 114 5 167 36 108 61 140 31 103-97-22-71-82-131-160-161-57-21-70-22-261-17l-202 5-25-56c-32-74-43-108-127-411-39-139-69-256-66-258 2-3 48 1 101 7 117 15 193 8 262-26 93-45 141-127 112-195-16-39-38-43-190-35-153 8-369-2-374-18-62-189-201-483-293-621-77-115-158-204-236-258-79-56-107-67-162-67-39 0-51 5-80 34-19 19-34 43-34 55s28 48 69 89c82 81 155 189 223 332 59 122 160 371 153 378-2 2-18-1-36-7-49-17-65-14-104 20-71 63-30 122 130 189 44 19 84 37 88 40 4 4 41 105 81 226 100 298 171 466 241 568 14 21 24 40 22 42-2 3-69 5-148 6-109 1-158-2-200-15-103-31-174-102-205-203-17-56-26-64-75-64-52 0-99 36-131 99-84 166 28 360 252 439 61 21 76 23 245 18 99-3 248-14 330-25zm2114 14c279-66 421-341 382-735-43-419-238-842-528-1141-262-269-516-386-780-358-343 35-523 313-483 744 21 234 84 452 195 680 212 436 536 734 880 810 83 18 256 18 334 0zm1664-14c324-125 405-559 163-878-52-68-147-139-202-149-19-3-58-4-86-2-45 5-57 11-95 51-39 41-43 51-43 95 0 49 1 51 45 76 96 56 198 184 236 293 27 78 26 183-2 241-42 86-154 128-277 103-179-36-332-208-376-423-43-211-1-351 189-623 217-311 253-480 148-695-63-129-188-233-345-286-137-47-324-33-435 33-49 29-114 98-137 148-43 90-40 209 7 302 50 97 159 164 217 131 25-14 25-16 25-138 1-108 4-132 23-175 28-61 46-82 96-107 53-27 149-27 203 1 62 31 109 90 124 155 10 47 10 65-5 123-21 86-63 156-189 311-54 68-123 161-151 206-254 404-86 949 362 1175 104 53 151 61 307 57 115-3 150-7 198-25zm-4876-268c-3-10-5-4-5 12 0 17 2 24 5 18 2-7 2-21 0-30zm13-163c0-5-5-10-11-10-5 0-7 5-4 10 3 6 8 10 11 10 2 0 4-4 4-10zm5427-227c-3-10-5-2-5 17s2 27 5 18c2-10 2-26 0-35zm-1773-1612c13-20-208-178-344-246-79-40-248-105-272-105-26 0 18 29 75 50 161 59 346 162 462 259 63 52 70 56 79 42zm616-116c-320-415-777-696-1281-789-185-34-502-49-539-26-24 15 1 18 200 24 202 5 315 21 489 67 391 104 776 344 1033 646 106 124 114 133 121 126 4-3 7 0 7 7s3 10 6 7c4-4-12-31-36-62zm-501-27c-242-219-596-386-902-426-112-14-61 14 75 43 293 60 567 194 783 382 47 41 86 68 94 65 10-4-5-24-50-64zm174-78c-139-134-312-258-472-340-161-81-403-157-592-185-121-17-259-20-259-5 0 6 9 10 19 10 53 0 238 23 331 41 360 69 740 275 995 538 35 36 52 48 60 40 7-7-17-37-82-99z"/>
<path d="m3800 4427c-107-45-212-132-333-276-357-425-589-1146-460-1424 52-110 117-157 218-157 232 0 521 294 740 753 186 391 252 734 185 968-15 53-62 113-106 134-62 30-176 31-244 2z"/>
</g>
</svg>
