<svg viewBox="0 0 512 512" xmlns="http://www.w3.org/2000/svg">
    <g fill="#eceef9">
        <path d="m510 103c-4.64-24-16.3-47.1-34.9-65.6-12.3-12.4-26.7-21.7-42-27.9-23-9.3-48-11.6-72-7-24 4.64-47 16.4-65.6 34.9l-98.6 98.6c-0.516 0.484-0.984 1-1.44 1.53 0.172-0.031 0.328-0.094 0.5-0.094 29-5.8 58.7-3.09 86.1 7.83 0.141 0.031 0.297 0.125 0.438 0.172l60.5-60.5c5.91-5.89 12.6-10.2 19.8-13.1 10.7-4.38 22.6-5.48 33.9-3.27 11.4 2.19 22 7.59 30.8 16.4 5.91 5.91 10.2 12.6 13.2 19.8 4.38 10.7 5.47 22.6 3.27 34-2.22 11.3-7.59 22-16.4 30.8l-98.6 98.6c-5.89 5.91-12.5 10.2-19.7 13.2-10.8 4.36-22.7 5.44-34 3.27-11.3-2.22-22-7.59-30.8-16.4-4.77-4.8-8.48-10.1-11.3-15.8-0.281-0.063-0.578-0.156-0.875-0.203-6.58-1.23-13.6-0.547-19.8 2.03-4.27 1.78-8.14 4.36-11.5 7.73l-1.92 1.95c-10 12.1-17.9 29.3-2.11 51.8 12.3 12.3 26.7 21.7 42 27.9 23 9.33 48 11.6 72 6.97 24-4.61 47.1-16.3 65.6-34.9l98.6-98.6c12.3-12.3 21.7-26.7 27.9-42 9.31-23 11.6-48 6.98-72z"/>
        <path d="m230 367c-0.188-0.094-0.313-0.125-0.469-0.188l-60.5 60.5c-5.89 5.91-12.6 10.2-19.7 13.2-10.8 4.38-22.6 5.44-34 3.27-11.3-2.22-22-7.59-30.8-16.4-5.91-5.92-10.2-12.6-13.2-19.8-4.36-10.7-5.45-22.6-3.25-34 2.19-11.3 7.58-22 16.4-30.8l98.6-98.6c5.88-5.89 12.5-10.2 19.7-13.1 10.7-4.41 22.6-5.47 34-3.3 11.3 2.23 22 7.59 30.8 16.4 4.8 4.78 8.52 10.1 11.3 15.8 0.266 0.078 0.563 0.141 0.859 0.219 6.59 1.2 13.6 0.484 19.8-2.05 4.31-1.8 8.17-4.41 11.5-7.78l1.92-1.92c10-12.1 17.8-29.3 2.11-51.8-12.3-12.3-26.7-21.6-42-27.9-23-9.3-48-11.6-72-6.98-24 4.62-47 16.4-65.6 34.9l-98.6 98.6c-12.3 12.3-21.7 26.7-27.9 42-9.33 23-11.6 48-6.98 72 4.64 24 16.4 47.1 34.9 65.6 12.3 12.4 26.7 21.7 42 27.9 23 9.31 48 11.6 72 6.95 24-4.61 47.1-16.3 65.6-34.9l98.6-98.6c0.516-0.453 0.984-1 1.45-1.45-0.156 0-0.344 0.063-0.5 0.063-29 5.77-58.7 3.08-86.1-7.84z"/>
    </g>
</svg>
